/* XPM */
static char *qcnicon[] = {
/* columns rows colors chars-per-pixel */
"32 32 198 2",
"   c #676644",
".  c #6F7149",
"X  c #71764E",
"o  c #607151",
"O  c #7E8158",
"+  c #868A59",
"@  c #878867",
"#  c #8C8F64",
"$  c #80906A",
"%  c #8B9969",
"&  c #908E73",
"*  c #A19F65",
"=  c #9FB776",
"-  c #A0BC7D",
";  c #7B9684",
":  c #7AA295",
">  c #8CAB92",
",  c #93B094",
"<  c #A5AD9D",
"1  c #9EB1BF",
"2  c gray67",
"3  c #B4B3B3",
"4  c #BBBBBB",
"5  c #D09C97",
"6  c #D1A09C",
"7  c #D2A3A0",
"8  c #D6AAA7",
"9  c #D7ADA9",
"0  c #D3B0AE",
"q  c #DAB1AE",
"w  c #DCB6B2",
"e  c #DDBAB6",
"r  c #DEBDB9",
"t  c #E0BEBA",
"y  c #9BC292",
"u  c #9ECF95",
"i  c #BCC083",
"p  c #B0C789",
"a  c #A6D58D",
"s  c #ACCD92",
"d  c #ADDA9E",
"f  c #B4DD90",
"g  c #BEDB93",
"h  c #BAD799",
"j  c #B2DD9B",
"k  c #BCDD9B",
"l  c #92C5A6",
"z  c #9EC1A1",
"x  c #9DD7AC",
"c  c #95C8B0",
"v  c #96C8BA",
"b  c #A7DAA1",
"n  c #ACDCA3",
"m  c #A4D2AB",
"M  c #AEDAAD",
"N  c #B2D7A5",
"B  c #B1D9AE",
"V  c #BBDEA8",
"C  c #A5C2B6",
"Z  c #A8CEB3",
"A  c #A0CDBC",
"S  c #AACFBB",
"D  c #A4D8B5",
"F  c #ADD8B6",
"G  c #A0D7BD",
"H  c #B3D7B6",
"J  c #B9D4B2",
"K  c #B6DBB3",
"L  c #CCCE82",
"P  c #C7DA8F",
"I  c #C5D296",
"U  c #C4DE97",
"Y  c #CCDB96",
"T  c #DFD792",
"R  c #DFE492",
"E  c #CEDFA8",
"W  c #CBD4BA",
"Q  c #E1C2BE",
"!  c #CAE1A6",
"~  c #D8E5A5",
"^  c #D7E5B2",
"/  c #E1E6B4",
"(  c #958BC1",
")  c #9590C4",
"_  c #9799C5",
"`  c #A095C7",
"'  c #A79FCC",
"]  c #97A6CE",
"[  c #9BA4CD",
"{  c #9CAECC",
"}  c #9CB5C9",
"|  c #92BBCC",
" . c #9CBBC9",
".. c #9EAFD4",
"X. c #9AB4D6",
"o. c #9BBCD5",
"O. c #99BEDA",
"+. c #AAA2CD",
"@. c #A2BBC4",
"#. c #A4B3CE",
"$. c #A4AAD1",
"%. c #AAADD2",
"&. c #B0ACD3",
"*. c #ACB6D6",
"=. c #A3B8D2",
"-. c #A5BAD9",
";. c #B8B1D2",
":. c #B5B8D7",
">. c #B8B8D4",
",. c #B4BDD8",
"<. c #C2BEDA",
"1. c #9DC4C6",
"2. c #9CCEC2",
"3. c #9DC6CE",
"4. c #95CBCB",
"5. c #9ED8C7",
"6. c #9FD7CF",
"7. c #9DC6D4",
"8. c #9BC7DF",
"9. c #9CC8DF",
"0. c #9ED6D0",
"q. c #AECFCD",
"w. c #BECDCF",
"e. c #A6D9C5",
"r. c #A1D9C8",
"t. c #A8C4D1",
"y. c #B6C4D4",
"u. c #BCC4D5",
"i. c #BFC2D8",
"p. c #BBCBDF",
"a. c #BCDBDF",
"s. c #9CD1E1",
"d. c #BBD1E2",
"f. c #B8DEE0",
"g. c #BCE1E2",
"h. c #C3C3C3",
"j. c #CCCCCC",
"k. c #D1CECE",
"l. c #DECFCE",
"z. c #C1DFC6",
"x. c #D3D4C0",
"c. c #D3D9C5",
"v. c #C4C2DC",
"b. c #C8C6DD",
"n. c #C1DAD7",
"m. c #D4D4D4",
"M. c #DDD2D1",
"N. c #D2D0DD",
"B. c #DBDBDB",
"V. c #E2C5C2",
"C. c #E4C9C6",
"Z. c #E4CDCB",
"A. c #E7D1CF",
"S. c #EAD5D3",
"D. c #EDD9D7",
"F. c #E0DFDE",
"G. c #EEDEDC",
"H. c #CDE2D3",
"J. c #CBE1D8",
"K. c #D2E6D2",
"L. c #D9E5D7",
"P. c #DCEAD3",
"I. c #EDE0DF",
"U. c #E0EEDE",
"Y. c #EAECDF",
"T. c #EBF1D9",
"R. c #C7C7E0",
"E. c #C9C7E0",
"W. c #C2CDE1",
"Q. c #CCCBE3",
"!. c #D3D0E3",
"~. c #D3D8E2",
"^. c #DCDBE1",
"/. c #DCDAEA",
"(. c #E0DFEC",
"). c #DAEAED",
"_. c #E4E4E4",
"`. c #EDE2E1",
"'. c #E4EAE7",
"]. c #EEEFE0",
"[. c #E5E4EB",
"{. c #E7EEE8",
"}. c #ECECED",
"|. c #F1E3E1",
" X c #F5EEED",
".X c #E5F0E6",
"XX c #E9F2EC",
"oX c #F5F1EE",
"OX c #F8F1EF",
"+X c #E8E6F0",
"@X c #ECEBF4",
"#X c #ECF1F2",
"$X c #F3F3F3",
"%X c #FAF5F4",
"&X c #F9F9F5",
"*X c #F5F5F9",
"=X c #F7F8FA",
"-X c #FEFEFE",
/* pixels */
"-X-X-X-X-X-X-X-X-X-X-X$X}._._._._._.}.}.*X=X-X-X-X-X-X-X-X-X-X-X",
"-X-X-X-X-X-X-X-X$X}.B.B.m.j.m.h.h.k.k.k.m._.#X$X-X-X-X-X-X-X-X-X",
"-X-X-X-X-X-X=X$X$X_.j.m.j.B._.}.}.'.B.k.m.m.$X$X$X&X-X-X-X-X-X-X",
"-X-X-X-X-X%X$X=X-X$X_.#X&X-X=X-X=X-X=X-X X'.&X-X=X$X$X-X-X-X-X-X",
"-X-X-X-X$X$X-X=X}.[.*X=X=X=X-X&X-X-X-X-X-X-X$X$X-X-X$X$X-X-X-X-X",
"-X-X-X$X$X-X&X$Xn.p.b.v.d.W.!.(.-X-X-X-X-X-X-X=XXX=X-X$X$X-X-X-X",
"-X-X%X$X-X%X#X=Xz.7.' _ X.$.+.<.-X&X|.D.&X-X-X-X&X$X%X-X$X$X-X-X",
"-X-X$X=X-X$X&X-X/ F ] ( X.X.( ;.&XS.V.Z.Z.%X-X-X-X-X$X-X=X$X-X-X",
"-X$X$X-X$X=X-X=XT B } ( X.8.] >.OXt (.D.S.S.-X-X-X-X=X$X-X$X%X-X",
"-X$X-X=X$X-X-X&X~ n  .) [ O.s.f.OXt |.%XV.S.&X&X-X-X-X$X=X-X$X-X",
"=X$X-X X-X-X-X-XT.k S _ ' $.8.g.OXt A.Z.t e S.V.-X-X-X-X}.-X$X=X",
"$X-X=X$X-X-X-X-X].k j 1.&.E.-.a.&XG.Q t 9 5 V.C.-X-X-X-X%X-X=X$X",
"}.-X$X-X-X-X-X-X&X^ f a 1 N.E.t.XX-X-X&X5 Q -Xe t D.q  X&X$X-XXX",
"$X-X$X=X-X-X-X-X-X].I - , v.+X,.q.U.-X-Xt S.|.t r e t OX=X%X-X$X",
"XX-X$X-X-X-X-X-X-X&Xx.# O } )./.} M P.-XS.V.r 9 7 q 9 OX-X$X-X$X",
"$X-X$X-X-X-X-X-X-X-X=X& X , u.[.{ D d P.&X$X XV.e r Q  X-X$X-X$X",
"#X-X$X-X-X-X-X-X-X-X-Xc.< P C v.b.=.2.G K.-X-XQ Z.I.w  X&X$X-X$X",
"oX-X%X=X-X$X}.}.}.}.}. XE s n @.Q.<.o.r.e.H.$X%X&X-X%X-X-X$X-X$X",
"@X-X$X-X-X_._. X$X}.'._.H.c k N $.$.t.6.5.S N.-X-X-X-X-X-X$X-X$X",
"XX-X%X=X-X}.#X=X-X-X=X_.#Xq.H Y 7.O.0.x b M w.@X-X-X-X-X=X$X-X}.",
"$X-X%X$X-X}.`.9 S.`.`.B.'.}.f.K h y u l 4.| *.@X$X-X-X-X$X%X=X$X",
"=X$X-X}.&X_.M.9 Z.A.M.k.m.$Xn.A p * % ; : c @.b.=X$X-X-X}.B.B.=X",
"-X}.k.}.B.4 3 3 4 3 3 3 B.$X'.L.W @   . X , N @.$X$X$X$X}.4 _.&X",
"-X$X4 m.}._.}.}.}.}.}.}.=X-X-X-X=XY.< o + L U t./.$X%X}.B.h.$X-X",
"-X-X$X2 _.$X=X-X-X-X-X-X-X-X-X-X-X-X-X{.z P R V ,.@X}.F.3 #X&X-X",
"-X-X$X_.h.$X$X-X-X-X-X-X-X-X-X-X-X-X-X-Xn.Z ! E y.^._.w.B.%X-X-X",
"-X-X-X$X'.=X$X$X=X-X-X-X-X-X-X-X-X-X-X-X#X)..XY._.$X}.m.$X-X-X-X",
"-X-X-X-X$X$Xh.m.#X$X-X-X-X-X-X-X-X-X-X-X-X-X$X}.=X&X X$X-X-X-X-X",
"-X-X-X-X-X$X}.4 j.(.[.$X-X=X-X=X-X-X=X&X$X}.}.m.h.$X$X-X-X-X-X-X",
"-X-X-X-X-X-X$X}.4 W k.m.{.oX$XoX$X$X$X$XF.m.4 h.}.=X-X-X-X-X-X-X",
"-X-X-X-X-X-X-X-X$X_.j.j.h.h.<.c.j.j.h.h.j.m._.$X-X-X-X-X-X-X-X-X",
"-X-X-X-X-X-X-X-X-X&X&X}.(.B.j.m.m.B.B.B.}.$X-X-X-X-X-X-X-X-X-X-X"
};
